# xmcd CD database file
#
# Track frame offsets:
#	150
#	11805
#	48015
#	60585
#	73240
#	84030
#	95465
#	109610
#	142435
#	155010
#	169195
#	181245
#	192285
#	203155
#	215610
#	227325
#	242515
#	254915
#	276480
#	289235
#
# Disc length: 4038 seconds
#
# Revision: 0
# Processed by: cddbd v1.5.2PL0 Copyright (c) Steve Scherf et al.
# Submitted via: CDex 1.50Beta7
#
DISCID=2b0fc414
DTITLE=Various Artist - Blues legends CD3 Sinking blues
DYEAR=2003
DGENRE=Blues
TTITLE0=Memphis Slim - Nobody loves me
TTITLE1=Big Joe Turner - I hear you knockin'
TTITLE2=Jimmy Reed - Shame, shame, shame
TTITLE3=Sonny Boy Williamson - New early in the mornin'
TTITLE4=Elmore James - I done something wrong
TTITLE5=Big Joe Williams - Bye, bye baby blues
TTITLE6=Muddy Waters - Rollin' stone
TTITLE7=Big Joe turner The night time is the right time
TTITLE8=Jimmy Reed - Little rain
TTITLE9=T-Bone Walker - They callit stormy monday
TTITLE10=Elmore James - Mean mistreating' Mama
TTITLE11=Big Joe Williams - Sinking blues
TTITLE12=Robert Johnson - Love in vain
TTITLE13=Jimmy Reed - Honest I do
TTITLE14=Elmore James - Rollin' and tumblin'
TTITLE15=Mississipi John Hurt - The angels laid him away
TTITLE16=Lonnie Johnson - Nothing but trouble
TTITLE17=Big Joe Turner - Hide and go seek
TTITLE18=Sonny Terry - Whoopin' the blues
TTITLE19=Mississipi John Hurt - Rich woman blues
EXTD=YEAR: 2003
EXTT0=
EXTT1=
EXTT2=
EXTT3=
EXTT4=
EXTT5=
EXTT6=
EXTT7=
EXTT8=
EXTT9=
EXTT10=
EXTT11=
EXTT12=
EXTT13=
EXTT14=
EXTT15=
EXTT16=
EXTT17=
EXTT18=
EXTT19=
PLAYORDER=
